<?xml version="1.0" encoding="utf-8"?>
<!-- Generator: Adobe Illustrator 21.0.0, SVG Export Plug-In . SVG Version: 6.00 Build 0)  -->
<svg version="1.1" id="Layer_1" xmlns="http://www.w3.org/2000/svg" xmlns:xlink="http://www.w3.org/1999/xlink" x="0px" y="0px"
	 viewBox="0 0 317.4 299.7" style="enable-background:new 0 0 317.4 299.7;" xml:space="preserve">
<style type="text/css">
	.st0{fill:#F68C31;}
	.st1{fill:#B34A26;}
	.st2{fill:#FED9BA;}
	.st3{fill:#F4B782;}
	.st4{fill:#F99F51;}
	.st5{fill:#FFFFFF;}
	.st6{fill:#010101;}
	.st7{fill:#D65527;}
	.st8{fill:#A34223;}
</style>
<g>
	<g>
		<g>
			<path class="st0" d="M243.4,134.3c6.9-5.2,16.4-17.1,17.7-27.9c1.3-10.8-2.5-79.5-7.1-81.6c-4.5-2.1-48.7,24.8-66.5,61.2
				C177.9,106,243.4,134.3,243.4,134.3z"/>
			<g>
				<path class="st1" d="M243.4,136.1c-0.2,0-0.5,0-0.7-0.1c-2-0.9-49.9-21.8-57-40.9c-1.3-3.5-1.2-6.7,0.2-9.7
					c17.4-35.7,62.5-65,68.8-62.1c1.3,0.6,4,1.9,6.7,39c1.4,19.4,2,38.9,1.4,44.4c-1.4,12.2-12,24.3-18.4,29.1
					C244.1,136,243.8,136.1,243.4,136.1z M253.1,26.5c-5.6,0-46.9,25.4-64,60.4c-1,2.1-1.1,4.4-0.1,6.9c6,16.3,47.3,35.4,54.1,38.4
					c6.3-5,15-15.9,16.2-26C260.8,93.9,256.5,32,253.1,26.5C253.1,26.5,253.1,26.5,253.1,26.5z"/>
			</g>
		</g>
		<g>
			<path class="st2" d="M254.3,90.4c0.7,15.4-5.7,31.3-16,39.9c-6.9-4.1-13.5-9.2-19.8-15c-6.9-6.4-13.3-13.9-18.8-22.1
				c10.9-22.5,27.2-40.7,45.9-51.5c0.5-0.3,0.9-0.6,1.4-0.8c0.1,9.6-2.2,19-7.1,26.6c3.1-2.9,7.6-4.2,11.3-3.6
				c0.6,9.8-1.5,20.5-6,28.6C247.9,90.8,251.4,90.5,254.3,90.4z"/>
			<g>
				<path class="st3" d="M238.3,132.1c-0.3,0-0.6-0.1-0.9-0.2c-7-4.2-13.7-9.3-20.1-15.2c-7.2-6.7-13.6-14.2-19-22.4
					c-0.3-0.5-0.4-1.2-0.1-1.7c11-22.7,27.6-41.3,46.6-52.3c0.5-0.3,1-0.6,1.5-0.8c0.5-0.3,1.2-0.3,1.7,0c0.5,0.3,0.9,0.9,0.9,1.5
					c0.1,7.9-1.4,15.4-4.3,22c2.3-0.8,4.8-1.1,7.1-0.7c0.8,0.1,1.4,0.8,1.5,1.6c0.6,8.7-1,17.9-4.2,25.4c1.8-0.4,3.6-0.5,5.3-0.5
					c1,0,1.8,0.7,1.8,1.7c0.8,15.8-5.9,32.4-16.6,41.3C239.1,131.9,238.7,132.1,238.3,132.1z M201.8,93.1c5.2,7.6,11.2,14.7,17.9,21
					c5.8,5.4,12,10.2,18.4,14.1c8.9-8.1,14.6-22.2,14.4-35.9c-2.2,0.1-4.5,0.6-6.3,1.7c-0.7,0.5-1.6,0.4-2.2-0.2
					c-0.6-0.6-0.7-1.5-0.3-2.2c4-7.1,6.2-16.8,5.9-26.1c-3,0-6.2,1.2-8.5,3.3c-0.7,0.6-1.6,0.6-2.3,0.1c-0.7-0.6-0.8-1.5-0.4-2.3
					c4.1-6.5,6.4-14.2,6.8-22.6C227.7,54.6,212.3,71.9,201.8,93.1z"/>
			</g>
		</g>
	</g>
	<g>
		<g>
			<path class="st0" d="M73.1,134.3c-6.9-5.2-16.4-17.1-17.7-27.9c-1.3-10.8,2.5-79.5,7.1-81.6s48.7,24.8,66.5,61.2
				C138.5,106,73.1,134.3,73.1,134.3z"/>
			<g>
				<path class="st1" d="M73.1,136.1c-0.4,0-0.7-0.1-1.1-0.4c-6.3-4.8-17-16.8-18.4-29.1c-0.6-5.5,0-25,1.4-44.4
					c2.7-37.1,5.4-38.4,6.7-39c6.3-2.9,51.4,26.3,68.8,62.1c1.4,3,1.5,6.2,0.2,9.7c-7,19.1-54.9,40-57,40.9
					C73.5,136.1,73.3,136.1,73.1,136.1z M63.3,26.6c-3.4,5.8-7.6,67.4-6.2,79.7c1.2,10.1,9.9,21,16.2,26
					c6.8-3.1,48.1-22.2,54.1-38.4c0.9-2.6,0.9-4.8-0.1-6.9C110.3,52.1,69.3,26.8,63.3,26.6z"/>
			</g>
		</g>
		<g>
			<path class="st2" d="M62.2,90.4c-0.7,15.4,5.7,31.3,16,39.9c6.9-4.1,13.5-9.2,19.8-15c6.9-6.4,13.3-13.9,18.8-22.1
				c-10.9-22.5-27.2-40.7-45.9-51.5c-0.5-0.3-0.9-0.6-1.4-0.8c-0.1,9.6,2.2,19,7.1,26.6c-3.1-2.9-7.6-4.2-11.3-3.6
				c-0.6,9.8,1.5,20.5,6,28.6C68.5,90.8,65.1,90.5,62.2,90.4z"/>
			<g>
				<path class="st3" d="M78.1,132.1c-0.4,0-0.8-0.1-1.1-0.4c-10.7-9-17.3-25.6-16.6-41.3c0-0.9,0.8-1.7,1.8-1.7c0,0,0,0,0,0
					c1.7,0,3.5,0.1,5.3,0.5c-3.2-7.5-4.8-16.7-4.2-25.4c0.1-0.8,0.7-1.5,1.5-1.6c2.3-0.4,4.8-0.1,7.1,0.7c-3-6.6-4.5-14.1-4.3-22
					c0-0.6,0.3-1.2,0.9-1.5c0.5-0.3,1.2-0.3,1.7,0c0.5,0.3,1,0.6,1.5,0.8c19,11,35.5,29.6,46.6,52.3c0.3,0.6,0.2,1.2-0.1,1.7
					c-5.4,8.2-11.8,15.7-19,22.4c-6.3,5.9-13.1,11-20.1,15.2C78.8,132,78.4,132.1,78.1,132.1z M63.9,92.2
					c-0.2,13.7,5.5,27.8,14.4,35.9c6.4-3.9,12.5-8.6,18.4-14.1c6.8-6.3,12.8-13.3,17.9-21C104.1,71.9,88.8,54.5,71.1,44
					c0.3,8.4,2.7,16.1,6.8,22.6c0.5,0.7,0.3,1.7-0.4,2.3c-0.7,0.6-1.7,0.5-2.3-0.1c-2.2-2.1-5.4-3.3-8.4-3.3c0,0,0,0-0.1,0
					c-0.3,9.3,1.8,19,5.9,26.1c0.4,0.7,0.3,1.6-0.3,2.2c-0.6,0.6-1.5,0.6-2.2,0.2C68.4,92.8,66.1,92.4,63.9,92.2z"/>
			</g>
		</g>
	</g>
	<g>
		<path class="st0" d="M301.2,210.3c-0.7-3.3-8.4-4.5-25.3-9.9c7.7-0.3,19-9,12.4-12.3c-6.3-3.2-19.1-14.7-24.1-26
			c-12.9-33.3-31.8-66.2-40.4-73.2c-21.1-17.1-108.9-20.3-131.4,0c-8.1,7.3-26.5,39.1-39.5,71.7c-4.5,11.8-18.2,24.3-24.8,27.6
			c-6.6,3.3,4.7,12,12.4,12.3c0,0,0,0,0,0c-16.9,5.4-24.6,6.6-25.3,9.9c-1.5,7.3,17.1,17.5,31.3,24.6c5.8,4.1,15.4,8.6,26.7,12.9
			c30.3,11.7,72.3,22.4,84.8,22.4c13,0,54.8-10.7,84.8-22.4c10.9-4.2,20.2-8.5,26.1-12.5C283.3,228.2,302.7,217.7,301.2,210.3z"/>
		<g>
			<path class="st2" d="M243.1,247.8c-30,11.7-71.8,22.4-84.8,22.4c-12.5,0-54.6-10.8-84.8-22.4c18.7-31.8,60.5-54.3,84.8-54.3
				C182.5,193.5,224.3,216,243.1,247.8L243.1,247.8z"/>
			<g>
				<path class="st3" d="M158.2,272c-13.4,0-56.5-11.4-85.5-22.6c-0.5-0.2-0.9-0.6-1-1.1c-0.2-0.5-0.1-1,0.1-1.5
					c18.6-31.6,60.9-55.2,86.3-55.2c25.4,0,67.8,23.6,86.3,55.2c0.1,0.1,0.1,0.3,0.2,0.4c0.2,0.9-0.2,1.8-1,2.2
					C214.4,260.8,172.1,272,158.2,272z M76,246.9c30.9,11.7,70.6,21.6,82.2,21.6c11.8,0,51.6-9.8,82.3-21.5
					c-18.5-29.7-58.2-51.7-82.3-51.7C134.2,195.2,94.5,217.2,76,246.9z"/>
			</g>
		</g>
		<path class="st4" d="M275.7,197.6c-6.3-3.2-19.1-14.7-24.1-26.1c-12.9-33.3-31.8-66.2-40.4-73.2C192.2,83,120,78.9,88.9,92.7
			c1.3-1.7,2.5-3,3.5-3.9c22.5-20.3,110.2-17.1,131.4,0c8.6,6.9,27.5,39.9,40.4,73.2c5,11.3,17.8,22.9,24.1,26
			c6.1,3-3.2,10.8-10.7,12.1C277.6,199.2,277,198.3,275.7,197.6z"/>
		<path class="st4" d="M285.8,226.3c2.1-2.3,3.2-4.5,2.8-6.5c-0.7-3.3-8.4-4.5-25.3-9.9c5.8-0.2,13.5-5.1,14.3-9
			c15.7,4.9,23,6.2,23.6,9.4C302.1,214.9,294.8,220.8,285.8,226.3z"/>
		<g>
			<path class="st1" d="M158.1,272c-13.4,0-56.5-11.4-85.5-22.6c-12.3-4.7-21.3-9.1-27-13c-23.8-12-33.4-19.9-32.1-26.5
				c0.7-3.5,4.9-4.7,15.2-7.8c1.7-0.5,3.4-1,5.3-1.6c-4.5-1.9-8.8-5.3-9.5-8.8c-0.5-2.2,0.6-4.2,2.9-5.3
				c5.8-2.9,19.5-14.9,23.9-26.6c13.4-33.5,31.8-65,40-72.3c22.9-20.7,111.9-17.7,133.7-0.1c9.5,7.7,28.7,42.3,40.9,73.9
				c4.7,10.5,16.9,21.9,23.3,25.1c2.3,1.1,3.3,3.1,2.8,5.3c-0.7,3.4-5,6.8-9.5,8.8c1.9,0.6,3.7,1.1,5.3,1.6
				c10.3,3,14.5,4.3,15.2,7.8l0,0c1.3,6.7-8.6,14.7-33,26.9c-5.7,3.8-14.5,8.1-26.3,12.6C214.3,260.8,172,272,158.1,272z
				 M155.1,76.7c-25.8,0-51.2,4.2-61.5,13.5c-7.9,7.1-26.2,39-39,71c-4.5,11.8-18.2,24.8-25.6,28.5c-1.2,0.6-1.1,1.1-1,1.4
				c0.6,2.8,7.5,7.4,12.7,7.6c0.9,0,1.6,0.7,1.7,1.5c0.1,0.9-0.4,1.7-1.2,1.9c-4.4,1.4-8.1,2.5-11.4,3.5c-7,2.1-12.5,3.7-12.8,5.1
				c-0.6,3.1,4.1,9.6,30.4,22.7c0.1,0,0.1,0.1,0.2,0.1c5.3,3.7,14.4,8.1,26.3,12.7c31.2,12,72.3,22.3,84.2,22.3
				c12.1,0,53.3-10.3,84.2-22.3c11.4-4.4,20.3-8.7,25.7-12.3c0.1,0,0.1-0.1,0.2-0.1c21.6-10.8,32.2-18.6,31.3-23.1l0,0
				c-0.3-1.4-5.8-3-12.8-5.1c-3.3-1-7-2.1-11.4-3.5c-0.8-0.3-1.3-1.1-1.2-1.9c0.1-0.8,0.8-1.5,1.7-1.5c5.1-0.2,12-4.8,12.7-7.6
				c0.1-0.3,0.2-0.8-1-1.4c-7-3.5-19.9-15.4-25-26.9c-13-33.6-31.8-66-39.9-72.5C212.1,81.6,183.3,76.7,155.1,76.7z"/>
		</g>
	</g>
	<g>
		<g>
			<circle class="st5" cx="98.3" cy="186.6" r="31"/>
			<path class="st6" d="M98.3,219.3c-18,0-32.7-14.7-32.7-32.7c0-18,14.7-32.7,32.7-32.7c18,0,32.7,14.7,32.7,32.7
				C131,204.6,116.3,219.3,98.3,219.3z M98.3,157.4c-16.1,0-29.2,13.1-29.2,29.2s13.1,29.2,29.2,29.2s29.2-13.1,29.2-29.2
				S114.4,157.4,98.3,157.4z"/>
		</g>
		<path class="st6" d="M124.6,186.6c0,10.2-8.3,18.5-18.5,18.5c-10.2,0-18.5-8.2-18.5-18.5c0-10.2,8.3-18.5,18.5-18.5
			c5.2,0,9.9,2.1,13.2,5.6c-4.2,4.8-6.3,9.6-4.7,11.1c1.4,1.4,5.1,0,9.3-3.2C124.4,183.2,124.6,184.9,124.6,186.6z"/>
	</g>
	<g>
		<g>
			<circle class="st5" cx="218.1" cy="186.6" r="31"/>
			<path class="st6" d="M218.1,219.3c-18,0-32.7-14.7-32.7-32.7c0-18,14.7-32.7,32.7-32.7s32.7,14.7,32.7,32.7
				C250.9,204.6,236.2,219.3,218.1,219.3z M218.1,157.4c-16.1,0-29.2,13.1-29.2,29.2s13.1,29.2,29.2,29.2s29.2-13.1,29.2-29.2
				S234.2,157.4,218.1,157.4z"/>
		</g>
		<path class="st6" d="M228.8,186.6c0,10.2-8.3,18.5-18.5,18.5c-10.2,0-18.5-8.2-18.5-18.5c0-10.2,8.3-18.5,18.5-18.5
			c5.2,0,9.9,2.1,13.2,5.6c-4.2,4.8-6.3,9.6-4.7,11.1c1.4,1.4,5.1,0,9.3-3.2C228.5,183.3,228.8,184.9,228.8,186.6z"/>
	</g>
	<g>
		
			<ellipse transform="matrix(0.1127 -0.9936 0.9936 0.1127 -28.4128 256.2158)" class="st7" cx="129.3" cy="144" rx="5.5" ry="11.3"/>
		<g>
			<path class="st8" d="M131.3,151.4c-0.9,0-1.9-0.1-2.8-0.2c-7.4-0.8-12.7-4.6-12.2-8.7c0.5-4.1,6.4-6.6,13.8-5.7
				c7.4,0.8,12.7,4.6,12.2,8.7c0,0,0,0,0,0C141.9,149.1,137.3,151.4,131.3,151.4z M127.2,140.2c-4.4,0-7.3,1.5-7.5,2.8
				c-0.2,1.5,3.3,4.1,9.1,4.8c5.8,0.7,9.7-1.1,9.9-2.6c0.2-1.5-3.3-4.1-9.1-4.8C128.8,140.2,128,140.2,127.2,140.2z M140.5,145.3
				L140.5,145.3L140.5,145.3z"/>
		</g>
	</g>
	<g>
		
			<ellipse transform="matrix(0.1127 -0.9936 0.9936 0.1127 20.5756 311.0755)" class="st7" cx="184.5" cy="144" rx="5.5" ry="11.3"/>
		<g>
			<path class="st8" d="M186.5,151.4c-0.9,0-1.9-0.1-2.8-0.2c-7.4-0.8-12.7-4.6-12.2-8.7c0.2-2.2,2-3.9,4.9-4.9
				c2.5-0.9,5.7-1.2,8.9-0.8c7.4,0.8,12.7,4.6,12.2,8.7c0,0,0,0,0,0C197.1,149.1,192.5,151.4,186.5,151.4z M182.5,140.2
				c-1.9,0-3.6,0.3-5,0.7c-1.5,0.5-2.5,1.3-2.6,2c-0.2,1.5,3.3,4.1,9.1,4.8c5.8,0.7,9.7-1.1,9.9-2.6c0.2-1.5-3.3-4.1-9.1-4.8
				C184.1,140.2,183.3,140.2,182.5,140.2z M195.7,145.3L195.7,145.3L195.7,145.3z"/>
		</g>
	</g>
	<g>
		<g>
			<path class="st6" d="M172.5,206.1c0,4.6-10.2,11.1-13.4,13c-0.3,0.2-0.6,0.2-0.9,0.2c-0.3,0-0.6-0.1-0.9-0.2
				c-3.1-1.9-13.4-8.4-13.4-13c0-1.3,0.4-2.5,1.3-3.3c2.2-2.2,6.5-2.2,11.9-2.2h2.2c5.4,0,9.7,0,11.9,2.2
				C172.1,203.6,172.5,204.7,172.5,206.1z"/>
		</g>
	</g>
	<g>
		<path class="st6" d="M157.7,239.6c-9.7,0-19.2-5.5-24-14c-0.5-0.9-0.2-1.9,0.7-2.4c0.8-0.5,1.9-0.2,2.4,0.7
			c4.4,7.8,13.3,12.7,22.3,12.2c8.9-0.5,17.2-6.5,20.6-14.8c0.4-0.9,1.4-1.3,2.3-1c0.9,0.4,1.3,1.4,1,2.3
			c-3.9,9.5-13.4,16.3-23.7,16.9C158.7,239.6,158.2,239.6,157.7,239.6z"/>
	</g>
</g>
</svg>
