<?xml version="1.0" encoding="utf-8"?>
<!-- Generator: Adobe Illustrator 21.0.0, SVG Export Plug-In . SVG Version: 6.00 Build 0)  -->
<svg version="1.1" id="Layer_1" xmlns="http://www.w3.org/2000/svg" xmlns:xlink="http://www.w3.org/1999/xlink" x="0px" y="0px"
	 viewBox="0 0 150.7 198.8" style="enable-background:new 0 0 150.7 198.8;" xml:space="preserve">
<style type="text/css">
	.st0{fill:#F68C31;}
	.st1{fill:#B34A26;}
	.st2{fill:#853A1C;}
	.st3{fill:#60270D;}
</style>
<g>
	<g>
		<path class="st0" d="M54.4,19.9c1.7,13.7,22.9,155.8,22.9,155.8l32.1,4l27.5-133.5L54.4,19.9z"/>
		<path class="st1" d="M109.4,183.1c-0.1,0-0.3,0-0.4,0l-32.1-4c-1.5-0.2-2.7-1.4-2.9-2.8C73.1,170.4,52.8,33.9,51,20.3
			c-0.1-1.1,0.3-2.3,1.2-3c0.9-0.7,2.1-1,3.2-0.6L137.9,43c1.6,0.5,2.6,2.2,2.3,3.9l-27.5,133.5C112.4,182,111,183.1,109.4,183.1z
			 M80.3,172.7l26.5,3.3L133,48.5L58.4,24.7C62.2,51.5,77.6,155.1,80.3,172.7z"/>
	</g>
	<g>
		<path class="st2" d="M109.4,179.7c3.9-19-65.3-34.4-81.9-24.6c-16.6,9.7-8,21.2-6.3,24.6C22.9,183.2,109.4,179.7,109.4,179.7z"/>
		<path class="st3" d="M47.7,184.7c-27.8,0-28.8-1.9-29.5-3.4c-0.1-0.3-0.3-0.6-0.5-1c-2.4-4.3-9.8-17.5,8.1-28.1
			c14.1-8.2,59.5-0.9,78.5,12.7c8.4,6,9.2,11.7,8.4,15.5c-0.3,1.5-1.6,2.6-3.2,2.7C80.7,184.2,61.1,184.7,47.7,184.7z M109.4,179.7
			L109.4,179.7L109.4,179.7z M23.6,177.1c7,1.4,46.2,0.8,82.3-0.6c-0.9-2.4-3.3-4.5-5.5-6.1c-17.5-12.6-60.4-18.7-71.2-12.4
			c-12.3,7.2-8.1,14.6-5.7,19C23.5,177,23.5,177.1,23.6,177.1z"/>
	</g>
</g>
</svg>
