<?xml version="1.0" encoding="utf-8"?>
<!-- Generator: Adobe Illustrator 21.0.0, SVG Export Plug-In . SVG Version: 6.00 Build 0)  -->
<svg version="1.1" id="Layer_1" xmlns="http://www.w3.org/2000/svg" xmlns:xlink="http://www.w3.org/1999/xlink" x="0px" y="0px"
	 viewBox="0 0 280.5 149.9" style="enable-background:new 0 0 280.5 149.9;" xml:space="preserve">
<style type="text/css">
	.st0{fill:#F68C31;}
	.st1{fill:#B34A26;}
	.st2{fill:#853A1C;}
	.st3{fill:#60270D;}
</style>
<g>
	<g>
		<g>
			<g>
				<g>
					<path class="st0" d="M200,87.6c3.5-4.6,17.4,40.5,10.1,37.8c-70.7,6.8-140.2-17.6-181.9-49.9c-14.1-10.9-17.5-30.8-8-46
						c0.2-0.3,0.3-0.5,0.5-0.8c12.3-19.4,39.8-22,55.1-4.9C109,60.9,152.2,82.6,200,87.6z"/>
					<path class="st1" d="M10.8,50.9c-0.6-8,1.3-16.2,5.9-23.6l0.5-0.8c6.6-10.4,17.4-17,29.7-18c12.1-1,23.8,3.6,31.9,12.6
						c31.9,35.6,73.5,57.1,120.4,62.3c1.3-0.4,2.8-0.3,4.1,0.6c5.5,3.4,15.7,35.3,12.2,42.5c-1.1,2.2-3.3,3.3-5.6,3
						c-64.2,6-136.4-13.9-184.1-50.8C16.7,71.7,11.5,61.5,10.8,50.9z M199.4,91.6C150,86.4,106.3,63.9,72.8,26.5
						c-6.4-7.1-15.6-10.8-25.2-10c-9.7,0.8-18.3,6-23.5,14.3l-0.5,0.8c-8.5,13.5-5.4,30.9,7.1,40.6c35,27,102.4,56,177.6,49.2
						C208.1,115,202.4,96.5,199.4,91.6z"/>
				</g>
			</g>
		</g>
	</g>
	<g>
		<g>
			<path class="st2" d="M209,126.8c5.4,6.4,11.9,10.4,17.5,11.7c5.7,1.3,11.7,1.3,17.1-0.9c5.4-2.2,9.9-6.9,10.8-12.7
				c0.9-5.7-2.3-12.1-7.9-13.9c6.2-1.3,11.7-5.9,13.6-12c1.9-6-0.1-13.2-5-17.2c-5-3.9-12.7-4.2-17.6-0.2c2.8-4.1,2.5-10-0.5-14
				c-3-4-8.2-6.2-13.2-5.6c-15.1,1.8-23,11.2-26,18.4C191.2,95.8,200.5,116.7,209,126.8z"/>
			<path class="st3" d="M191.7,95.2c-0.4-5.6,0.3-11.2,2.5-16.4c1.8-4.3,9.4-18.4,29.3-20.8c6.5-0.8,13.1,2.1,16.9,7.3
				c2.1,2.9,3.2,6.3,3.3,9.7c4.9-0.7,10.1,0.6,14.1,3.8c6.2,4.9,8.8,13.8,6.4,21.5c-1.5,4.9-4.9,9-9.3,11.8c3,3.6,4.4,8.6,3.6,13.6
				c-1.1,6.8-6.2,12.8-13.3,15.7c-5.6,2.3-12.4,2.7-19.5,1.1c-6.8-1.5-14-6.3-19.7-13l0,0C199.9,122.2,192.7,108.7,191.7,95.2z
				 M235.5,74.5c-0.1-1.6-0.7-3.2-1.6-4.5c-2.1-2.8-5.9-4.5-9.5-4c-15.6,1.8-21.4,12.7-22.8,15.9c-5.9,13.7,2.6,32.9,10.5,42.3l0,0
				c4.5,5.3,10.3,9.2,15.3,10.3c3.9,0.9,9.5,1.5,14.7-0.7c4.4-1.8,7.7-5.6,8.4-9.6c0.7-4-1.7-8.3-5.1-9.4c-1.8-0.6-2.9-2.3-2.8-4.1
				c0.1-1.8,1.4-3.4,3.2-3.7c4.9-1,9.2-4.7,10.6-9.2c1.4-4.6-0.1-10-3.7-12.8c-3.5-2.8-9.2-2.9-12.6-0.2c-1.6,1.2-3.8,1.2-5.3-0.2
				c-1.5-1.4-1.7-3.6-0.6-5.2C235.2,78,235.6,76.3,235.5,74.5z"/>
		</g>
	</g>
</g>
</svg>
