<?xml version="1.0" encoding="utf-8"?>
<!-- Generator: Adobe Illustrator 21.0.0, SVG Export Plug-In . SVG Version: 6.00 Build 0)  -->
<svg version="1.1" id="Layer_1" xmlns="http://www.w3.org/2000/svg" xmlns:xlink="http://www.w3.org/1999/xlink" x="0px" y="0px"
	 viewBox="0 0 280.5 235.6" style="enable-background:new 0 0 280.5 235.6;" xml:space="preserve">
<style type="text/css">
	.st0{fill:#F68C31;}
	.st1{fill:#B34A26;}
	.st2{fill:#853A1C;}
	.st3{fill:#60270D;}
</style>
<g>
	<g>
		<g>
			<g>
				<g>
					<path class="st0" d="M99.7,157.7c-5.3-2.3,4.5,43.8,9.6,37.9C174.3,167,223,111.8,243.7,63.3c7-16.4,0.3-35.5-15.4-44
						c-0.3-0.2-0.6-0.3-0.9-0.5C207.3,7.8,182,19,177,41.4C166.1,90,139,130,99.7,157.7z"/>
					<path class="st1" d="M247,33.4c4.5,9.6,5,21,0.5,31.5c-23.7,55.5-77,108.1-136,134.1c-1.8,1.4-4.3,1.5-6.3,0.1
						c-6.6-4.6-13.2-37.4-10.1-43c0.8-1.3,1.9-2.2,3.3-2.5c38.4-27.4,64.2-66.5,74.7-113.1c2.7-11.8,10.6-21.5,21.7-26.6
						c11.2-5.1,23.9-4.6,34.7,1.3l0.8,0.5C237.8,19.8,243.5,26.1,247,33.4z M109,191.2c69-30.8,113.7-88.9,131-129.6
						c6.2-14.5,0.3-31.3-13.6-38.9l-0.8-0.5c-8.6-4.7-18.6-5-27.5-1c-8.8,4-15,11.6-17.1,21c-11,49-38.3,90-78.8,118.6
						C101.9,166.6,105.9,185.6,109,191.2z"/>
				</g>
			</g>
		</g>
	</g>
	<g>
		<g>
			<path class="st2" d="M110.9,196.3c-1.6,8.2-5.3,14.9-9.6,18.7c-4.3,3.9-9.6,6.9-15.4,7.6c-5.8,0.7-12-1.3-15.6-5.8
				c-3.6-4.5-3.9-11.7,0.1-16c-6,1.9-13.1,0.5-17.7-3.8c-4.6-4.3-6.4-11.6-4-17.4c2.4-5.9,9-9.8,15.3-8.8c-4.5-2.2-7.1-7.5-6.4-12.5
				c0.6-5,4.1-9.5,8.8-11.4c14-5.8,25.5-1.4,31.7,3.3C111.3,160.6,113.5,183.3,110.9,196.3z"/>
			<path class="st3" d="M110.6,160.3c5.8,12.3,6.1,27.6,4.3,36.9c-1.7,8.6-5.7,16.3-10.9,21c-5.5,4.9-11.5,7.9-17.6,8.6
				c-7.6,0.9-14.9-1.9-19.2-7.3c-3.1-3.9-4.3-9-3.4-13.6c-5.1-0.3-10.1-2.3-13.8-5.7c-5.9-5.6-8-14.6-5-21.9
				c1.9-4.8,5.9-8.4,10.5-10.2c-1.7-3-2.4-6.6-1.9-10.1c0.8-6.4,5.2-12.1,11.2-14.6c18.5-7.7,32,1,35.7,3.8
				C104.9,150.6,108.2,155.2,110.6,160.3z M72.4,212.7c0.3,0.6,0.6,1.2,1.1,1.7c2.5,3.2,7.2,4.9,12,4.3c5.5-0.7,10.2-3.9,13.1-6.6
				c3.9-3.5,7-9.7,8.4-16.5l0,0c2.4-12,0.4-33-11.4-42c-2.8-2.2-13.2-8.8-27.7-2.8c-3.3,1.4-5.9,4.7-6.3,8.2c-0.4,3.4,1.4,7,4.2,8.4
				c1.8,0.9,2.7,2.9,2.1,4.9c-0.6,1.9-2.5,3.1-4.5,2.8c-4.3-0.7-9.2,2.1-10.9,6.3c-1.7,4.2-0.5,9.7,3,13c3.5,3.3,9,4.4,13.7,2.9
				c1.7-0.6,3.7,0.1,4.6,1.7c0.9,1.6,0.8,3.6-0.5,4.9C71.3,205.9,71,209.6,72.4,212.7z"/>
		</g>
	</g>
</g>
</svg>
