<?xml version="1.0" encoding="utf-8"?>
<!-- Generator: Adobe Illustrator 21.0.0, SVG Export Plug-In . SVG Version: 6.00 Build 0)  -->
<svg version="1.1" id="Layer_1" xmlns="http://www.w3.org/2000/svg" xmlns:xlink="http://www.w3.org/1999/xlink" x="0px" y="0px"
	 viewBox="0 0 150.7 198.8" style="enable-background:new 0 0 150.7 198.8;" xml:space="preserve">
<style type="text/css">
	.st0{fill:#F68C31;}
	.st1{fill:#B34A26;}
	.st2{fill:#853A1C;}
	.st3{fill:#60270D;}
</style>
<g>
	<path class="st0" d="M98.1,18.9c-1.7,13.7-22.9,155.3-22.9,155.3l-32.1,4L15.6,45.2L98.1,18.9z"/>
	<path class="st1" d="M43.1,181.6c-1.6,0-3-1.1-3.3-2.7L12.3,45.9c-0.3-1.7,0.6-3.4,2.3-3.9l82.5-26.3c1.1-0.3,2.3-0.1,3.2,0.6
		c0.9,0.7,1.3,1.9,1.2,3C99.7,32.9,79.4,169,78.5,174.8c-0.2,1.5-1.4,2.7-2.9,2.8l-32.1,4C43.4,181.6,43.2,181.6,43.1,181.6z
		 M19.5,47.5l26.3,127.1l26.5-3.3C74.8,153.7,90.3,50.4,94,23.7L19.5,47.5z"/>
	<path class="st2" d="M43.1,178.3c-3.9-19,65.3-34.3,81.9-24.6c16.6,9.7,8,21.1,6.3,24.6C129.6,181.7,43.1,178.3,43.1,178.3z"/>
	<path class="st3" d="M104.8,183.2c-13.4,0-33-0.4-61.8-1.6c-1.5-0.1-2.8-1.2-3.2-2.7c-0.8-3.7,0-9.5,8.4-15.4
		c18.9-13.6,64.4-21,78.6-12.7c18,10.5,10.6,23.7,8.1,28c-0.2,0.4-0.4,0.7-0.5,1C133.6,181.3,132.6,183.2,104.8,183.2z M46.6,175
		c36.1,1.4,75.3,2,82.3,0.6c0,0,0.1-0.1,0.1-0.1c2.5-4.4,6.6-11.7-5.7-18.9c-10.8-6.3-53.7-0.2-71.2,12.4
		C49.9,170.6,47.5,172.7,46.6,175z M129.6,175.5L129.6,175.5L129.6,175.5z"/>
</g>
</svg>
