<svg width="244" height="244" viewBox="0 0 244 244" fill="none" xmlns="http://www.w3.org/2000/svg">
<path d="M152.4 60.8V15.2C152.4 6.84 145.56 0 137.2 0H106.8C98.4399 0 91.5999 6.84 91.5999 15.2V60.8C91.5999 69.16 98.4399 76 106.8 76H137.2C145.56 76 152.4 69.16 152.4 60.8ZM122 15.2C130.36 15.2 137.2 22.04 137.2 30.4C137.2 38.76 130.36 45.6 122 45.6C113.64 45.6 106.8 38.76 106.8 30.4C106.8 22.04 113.64 15.2 122 15.2ZM243.6 212.8V91.2C243.6 74.48 229.92 60.8 213.2 60.8H167.6V65.816C167.6 79.8 156.2 91.2 142.216 91.2H101.784C87.7999 91.2 76.3999 79.8 76.3999 65.816V60.8H30.7999C14.0799 60.8 0.399902 74.48 0.399902 91.2V212.8C0.399902 229.52 14.0799 243.2 30.7999 243.2H213.2C229.92 243.2 243.6 229.52 243.6 212.8ZM228.4 121.6V212.8H15.5999V121.6H228.4ZM106.8 152C106.8 143.64 103.456 136.8 99.1999 136.8C94.9439 136.8 91.5999 143.64 91.5999 152C91.5999 160.36 94.9439 167.2 99.1999 167.2C103.456 167.2 106.8 160.36 106.8 152ZM152.4 152C152.4 143.64 149.056 136.8 144.8 136.8C140.544 136.8 137.2 143.64 137.2 152C137.2 160.36 140.544 167.2 144.8 167.2C149.056 167.2 152.4 160.36 152.4 152ZM61.8079 170.392C75.7919 177.688 97.3759 182.4 122 182.4C146.624 182.4 168.208 177.688 182.192 170.392C179 185.592 153.464 197.6 122 197.6C90.5359 197.6 64.9999 185.592 61.8079 170.392Z" fill="#16ABAC"/>
</svg>
