<svg width="72" height="65" viewBox="0 0 72 65" fill="none" xmlns="http://www.w3.org/2000/svg">
<path d="M22.9136 0.0542761C27.1442 -0.559092 31.6259 4.09529 32.9166 10.5176C34.2073 16.9039 31.8769 22.6046 27.6462 23.254C23.4514 23.9035 18.9338 19.2491 17.6073 12.8268C16.2807 6.44052 18.6829 0.739805 22.9136 0.0542761ZM48.5486 0.0542761C52.8152 0.739805 55.1815 6.44052 53.9266 12.8268C52.5642 19.2491 48.0826 23.9035 43.8519 23.254C39.5853 22.6046 37.2549 16.9039 38.5814 10.5176C39.8722 4.09529 44.3538 -0.559092 48.5486 0.0542761ZM3.73205 16.6513C7.81932 14.8833 13.3766 18.0945 16.2807 23.687C19.0055 29.3877 18.0734 35.3771 14.0219 37.145C9.97052 38.9129 4.44911 35.7379 1.6167 30.0732C-1.21571 24.4086 -0.211814 18.3832 3.73205 16.6513ZM68.268 16.6513C72.2118 18.3832 73.2157 24.4086 70.3833 30.0732C67.5509 35.7379 62.0295 38.9129 57.9781 37.145C53.9266 35.3771 52.9945 29.3877 55.7193 23.687C58.6234 18.0945 64.1807 14.8833 68.268 16.6513ZM62.2805 55.546C62.4239 58.9376 59.8424 62.69 56.7591 64.0971C50.3413 67.0557 42.7404 60.922 35.6056 60.922C28.4708 60.922 20.7982 67.3083 14.488 64.0971C10.9027 62.3292 8.42883 57.6387 8.89492 53.742C9.54028 48.366 15.958 45.4796 19.7585 41.5468C24.8138 36.4595 28.3991 26.8981 35.6056 26.8981C42.7763 26.8981 46.5767 36.3151 51.4169 41.5468C55.3966 45.9486 62.0295 49.6649 62.2805 55.546Z" fill="#222222"/>
</svg>
