<svg width="257" height="220" viewBox="0 0 257 220" fill="none" xmlns="http://www.w3.org/2000/svg">
<path d="M122.083 183.125C122.076 168.707 125.72 154.522 132.675 141.892C139.63 129.262 149.669 118.598 161.857 110.895C174.045 103.192 187.985 98.7008 202.378 97.8393C216.77 96.9778 231.147 99.7744 244.167 105.968V24.4167C244.167 10.9875 233.179 0 219.75 0H24.4167C10.9875 0 0 10.9875 0 24.4167V170.917C0 184.346 10.9875 195.333 24.4167 195.333H123.06C122.45 191.305 122.083 187.276 122.083 183.125ZM24.4167 24.4167L122.083 85.4583L219.75 24.4167V48.8333L122.083 109.875L24.4167 48.8333V24.4167ZM187.276 219.75L144.058 176.532L161.272 159.319L187.154 185.2L238.917 133.437L256.375 150.651L187.276 219.75Z" fill="#5974FF"/>
</svg>
