<svg width="834" height="60" viewBox="2 0 834 60" fill="none" xmlns="http://www.w3.org/2000/svg">
<g clip-path="url(#clip0_0_3)">
<path d="M2 6C8.66667 0.666667 15.3333 0.666667 22 6C28.6667 11.3333 35.3333 11.3333 42 6C48.6667 0.666667 55.3333 0.666667 62 6C68.6667 11.3333 75.3333 11.3333 82 6C88.6667 0.666667 95.3333 0.666667 102 6C108.667 11.3333 115.333 11.3333 122 6" stroke="#3F0D0D" stroke-width="4" stroke-linecap="round"/>
<path d="M2 30C8.66667 24.6667 15.3333 24.6667 22 30C28.6667 35.3333 35.3333 35.3333 42 30C48.6667 24.6667 55.3333 24.6667 62 30C68.6667 35.3333 75.3333 35.3333 82 30C88.6667 24.6667 95.3333 24.6667 102 30C108.667 35.3333 115.333 35.3333 122 30" stroke="#3F0D0D" stroke-width="4" stroke-linecap="round"/>
<path d="M2 54C8.66667 48.6667 15.3333 48.6667 22 54C28.6667 59.3333 35.3333 59.3333 42 54C48.6667 48.6667 55.3333 48.6667 62 54C68.6667 59.3333 75.3333 59.3333 82 54C88.6667 48.6667 95.3333 48.6667 102 54C108.667 59.3333 115.333 59.3333 122 54" stroke="#3F0D0D" stroke-width="4" stroke-linecap="round"/>
<path d="M120.877 6C127.544 0.666667 134.211 0.666667 140.877 6C147.544 11.3333 154.211 11.3333 160.877 6C167.544 0.666667 174.211 0.666667 180.877 6C187.544 11.3333 194.211 11.3333 200.877 6C207.544 0.666667 214.211 0.666667 220.877 6C227.544 11.3333 234.211 11.3333 240.877 6" stroke="#3F0D0D" stroke-width="4" stroke-linecap="round"/>
<path d="M120.877 30C127.544 24.6667 134.211 24.6667 140.877 30C147.544 35.3333 154.211 35.3333 160.877 30C167.544 24.6667 174.211 24.6667 180.877 30C187.544 35.3333 194.211 35.3333 200.877 30C207.544 24.6667 214.211 24.6667 220.877 30C227.544 35.3333 234.211 35.3333 240.877 30" stroke="#3F0D0D" stroke-width="4" stroke-linecap="round"/>
<path d="M120.877 54C127.544 48.6667 134.211 48.6667 140.877 54C147.544 59.3333 154.211 59.3333 160.877 54C167.544 48.6667 174.211 48.6667 180.877 54C187.544 59.3333 194.211 59.3333 200.877 54C207.544 48.6667 214.211 48.6667 220.877 54C227.544 59.3333 234.211 59.3333 240.877 54" stroke="#3F0D0D" stroke-width="4" stroke-linecap="round"/>
<path d="M239.754 6C246.421 0.666667 253.087 0.666667 259.754 6C266.421 11.3333 273.087 11.3333 279.754 6C286.421 0.666667 293.087 0.666667 299.754 6C306.421 11.3333 313.087 11.3333 319.754 6C326.421 0.666667 333.087 0.666667 339.754 6C346.421 11.3333 353.087 11.3333 359.754 6" stroke="#3F0D0D" stroke-width="4" stroke-linecap="round"/>
<path d="M239.754 30C246.421 24.6667 253.087 24.6667 259.754 30C266.421 35.3333 273.087 35.3333 279.754 30C286.421 24.6667 293.087 24.6667 299.754 30C306.421 35.3333 313.087 35.3333 319.754 30C326.421 24.6667 333.087 24.6667 339.754 30C346.421 35.3333 353.087 35.3333 359.754 30" stroke="#3F0D0D" stroke-width="4" stroke-linecap="round"/>
<path d="M239.754 54C246.421 48.6667 253.087 48.6667 259.754 54C266.421 59.3333 273.087 59.3333 279.754 54C286.421 48.6667 293.087 48.6667 299.754 54C306.421 59.3333 313.087 59.3333 319.754 54C326.421 48.6667 333.087 48.6667 339.754 54C346.421 59.3333 353.087 59.3333 359.754 54" stroke="#3F0D0D" stroke-width="4" stroke-linecap="round"/>
<path d="M358.631 6C365.298 0.666667 371.965 0.666667 378.631 6C385.298 11.3333 391.965 11.3333 398.631 6C405.298 0.666667 411.965 0.666667 418.631 6C425.298 11.3333 431.965 11.3333 438.631 6C445.298 0.666667 451.965 0.666667 458.631 6C465.298 11.3333 471.965 11.3333 478.631 6" stroke="#3F0D0D" stroke-width="4" stroke-linecap="round"/>
<path d="M358.631 30C365.298 24.6667 371.965 24.6667 378.631 30C385.298 35.3333 391.965 35.3333 398.631 30C405.298 24.6667 411.965 24.6667 418.631 30C425.298 35.3333 431.965 35.3333 438.631 30C445.298 24.6667 451.965 24.6667 458.631 30C465.298 35.3333 471.965 35.3333 478.631 30" stroke="#3F0D0D" stroke-width="4" stroke-linecap="round"/>
<path d="M358.631 54C365.298 48.6667 371.965 48.6667 378.631 54C385.298 59.3333 391.965 59.3333 398.631 54C405.298 48.6667 411.965 48.6667 418.631 54C425.298 59.3333 431.965 59.3333 438.631 54C445.298 48.6667 451.965 48.6667 458.631 54C465.298 59.3333 471.965 59.3333 478.631 54" stroke="#3F0D0D" stroke-width="4" stroke-linecap="round"/>
<path d="M477.508 6C484.175 0.666667 490.842 0.666667 497.508 6C504.175 11.3333 510.842 11.3333 517.508 6C524.175 0.666667 530.842 0.666667 537.508 6C544.175 11.3333 550.842 11.3333 557.508 6C564.175 0.666667 570.842 0.666667 577.508 6C584.175 11.3333 590.842 11.3333 597.508 6" stroke="#3F0D0D" stroke-width="4" stroke-linecap="round"/>
<path d="M477.508 30C484.175 24.6667 490.842 24.6667 497.508 30C504.175 35.3333 510.842 35.3333 517.508 30C524.175 24.6667 530.842 24.6667 537.508 30C544.175 35.3333 550.842 35.3333 557.508 30C564.175 24.6667 570.842 24.6667 577.508 30C584.175 35.3333 590.842 35.3333 597.508 30" stroke="#3F0D0D" stroke-width="4" stroke-linecap="round"/>
<path d="M477.508 54C484.175 48.6667 490.842 48.6667 497.508 54C504.175 59.3333 510.842 59.3333 517.508 54C524.175 48.6667 530.842 48.6667 537.508 54C544.175 59.3333 550.842 59.3333 557.508 54C564.175 48.6667 570.842 48.6667 577.508 54C584.175 59.3333 590.842 59.3333 597.508 54" stroke="#3F0D0D" stroke-width="4" stroke-linecap="round"/>
<path d="M596.385 6C603.052 0.666667 609.719 0.666667 616.385 6C623.052 11.3333 629.719 11.3333 636.385 6C643.052 0.666667 649.719 0.666667 656.385 6C663.052 11.3333 669.719 11.3333 676.385 6C683.052 0.666667 689.719 0.666667 696.385 6C703.052 11.3333 709.719 11.3333 716.385 6" stroke="#3F0D0D" stroke-width="4" stroke-linecap="round"/>
<path d="M596.385 30C603.052 24.6667 609.719 24.6667 616.385 30C623.052 35.3333 629.719 35.3333 636.385 30C643.052 24.6667 649.719 24.6667 656.385 30C663.052 35.3333 669.719 35.3333 676.385 30C683.052 24.6667 689.719 24.6667 696.385 30C703.052 35.3333 709.719 35.3333 716.385 30" stroke="#3F0D0D" stroke-width="4" stroke-linecap="round"/>
<path d="M596.385 54C603.052 48.6667 609.719 48.6667 616.385 54C623.052 59.3333 629.719 59.3333 636.385 54C643.052 48.6667 649.719 48.6667 656.385 54C663.052 59.3333 669.719 59.3333 676.385 54C683.052 48.6667 689.719 48.6667 696.385 54C703.052 59.3333 709.719 59.3333 716.385 54" stroke="#3F0D0D" stroke-width="4" stroke-linecap="round"/>
<path d="M715.263 6C721.929 0.666667 728.596 0.666667 735.263 6C741.929 11.3333 748.596 11.3333 755.263 6C761.929 0.666667 768.596 0.666667 775.263 6C781.929 11.3333 788.596 11.3333 795.263 6C801.929 0.666667 808.596 0.666667 815.263 6C821.929 11.3333 828.596 11.3333 835.263 6" stroke="#3F0D0D" stroke-width="4" stroke-linecap="round"/>
<path d="M715.263 30C721.929 24.6667 728.596 24.6667 735.263 30C741.929 35.3333 748.596 35.3333 755.263 30C761.929 24.6667 768.596 24.6667 775.263 30C781.929 35.3333 788.596 35.3333 795.263 30C801.929 24.6667 808.596 24.6667 815.263 30C821.929 35.3333 828.596 35.3333 835.263 30" stroke="#3F0D0D" stroke-width="4" stroke-linecap="round"/>
<path d="M715.263 54C721.929 48.6667 728.596 48.6667 735.263 54C741.929 59.3333 748.596 59.3333 755.263 54C761.929 48.6667 768.596 48.6667 775.263 54C781.929 59.3333 788.596 59.3333 795.263 54C801.929 48.6667 808.596 48.6667 815.263 54C821.929 59.3333 828.596 59.3333 835.263 54" stroke="#3F0D0D" stroke-width="4" stroke-linecap="round"/>
</g>
<defs>
<clipPath id="clip0_0_3">
<rect width="838" height="60" fill="white"/>
</clipPath>
</defs>
</svg>
