<svg width="272" height="309" viewBox="0 0 272 309" fill="none" xmlns="http://www.w3.org/2000/svg">
<path d="M220.541 176.571C225.539 176.571 230.391 177.16 235.243 177.896V132.429C235.243 124.624 232.145 117.138 226.631 111.619C221.116 106.101 213.637 103 205.838 103H191.135V73.5714C191.135 32.96 158.201 0 117.622 0C77.0422 0 44.1081 32.96 44.1081 73.5714V103H29.4054C21.6066 103 14.1272 106.101 8.61264 111.619C3.09806 117.138 0 124.624 0 132.429V279.571C0 295.904 13.0854 309 29.4054 309H144.234C136.735 296.051 132.324 281.043 132.324 264.857C132.324 216.153 171.875 176.571 220.541 176.571ZM73.5135 73.5714C73.5135 49.1457 93.2151 29.4286 117.622 29.4286C142.028 29.4286 161.73 49.1457 161.73 73.5714V103H73.5135V73.5714ZM117.622 235.429C111.806 235.429 106.121 233.703 101.285 230.469C96.4492 227.235 92.6802 222.639 90.4546 217.262C88.2289 211.884 87.6466 205.967 88.7812 200.259C89.9158 194.55 92.7164 189.307 96.8289 185.191C100.941 181.075 106.181 178.272 111.885 177.137C117.589 176.001 123.501 176.584 128.875 178.812C134.248 181.039 138.84 184.811 142.071 189.65C145.302 194.49 147.027 200.18 147.027 206C147.027 222.333 133.942 235.429 117.622 235.429ZM272 239.107L202.162 309L161.73 264.857L178.785 247.789L202.162 271.184L254.945 218.36L272 239.107Z" fill="#FF5B48"/>
</svg>
