<svg width="99" height="59" viewBox="0 0 99 59" fill="none" xmlns="http://www.w3.org/2000/svg">
<path fill-rule="evenodd" clip-rule="evenodd" d="M3.93235 1.48286C3.64646 0.415926 2.54979 -0.217239 1.48286 0.0686447C0.415926 0.354528 -0.217239 1.4512 0.0686448 2.51813L14.5625 56.61C14.8484 57.6769 15.9451 58.3101 17.012 58.0242C18.0789 57.7383 18.7121 56.6416 18.4262 55.5747L3.93235 1.48286ZM19.9323 1.48286C19.6465 0.415926 18.5498 -0.217239 17.4829 0.0686447C16.4159 0.354528 15.7828 1.4512 16.0686 2.51813L30.5625 56.61C30.8484 57.6769 31.9451 58.3101 33.012 58.0242C34.0789 57.7383 34.7121 56.6416 34.4262 55.5747L19.9323 1.48286ZM33.4829 0.0686447C34.5498 -0.217239 35.6465 0.415926 35.9323 1.48286L50.4262 55.5747C50.7121 56.6416 50.0789 57.7383 49.012 58.0242C47.9451 58.3101 46.8484 57.6769 46.5625 56.61L32.0686 2.51813C31.7828 1.4512 32.4159 0.354528 33.4829 0.0686447ZM51.9323 1.48286C51.6465 0.415926 50.5498 -0.217239 49.4829 0.0686447C48.4159 0.354528 47.7828 1.4512 48.0686 2.51813L62.5625 56.61C62.8484 57.6769 63.9451 58.3101 65.012 58.0242C66.0789 57.7383 66.7121 56.6416 66.4262 55.5747L51.9323 1.48286ZM65.4829 0.0686447C66.5498 -0.217239 67.6465 0.415926 67.9324 1.48286L82.4262 55.5747C82.7121 56.6416 82.0789 57.7383 81.012 58.0242C79.9451 58.3101 78.8484 57.6769 78.5625 56.61L64.0686 2.51813C63.7828 1.4512 64.4159 0.354528 65.4829 0.0686447ZM83.9324 1.48286C83.6465 0.415926 82.5498 -0.217239 81.4829 0.0686447C80.4159 0.354528 79.7828 1.4512 80.0686 2.51813L94.5625 56.61C94.8484 57.6769 95.9451 58.3101 97.012 58.0242C98.0789 57.7383 98.7121 56.6416 98.4262 55.5747L83.9324 1.48286Z" fill="black"/>
</svg>
