<svg width="905" height="200" viewBox="0 0 905 200" fill="none" xmlns="http://www.w3.org/2000/svg">
<g opacity="0.8">
<path d="M40 76C46.6667 70.6667 53.3333 70.6667 60 76C66.6667 81.3333 73.3333 81.3333 80 76C86.6667 70.6667 93.3333 70.6667 100 76C106.667 81.3333 113.333 81.3333 120 76C126.667 70.6667 133.333 70.6667 140 76C146.667 81.3333 153.333 81.3333 160 76" stroke="#3F0D0D" stroke-width="4" stroke-linecap="round"/>
<path d="M40 100C46.6667 94.6667 53.3333 94.6667 60 100C66.6667 105.333 73.3333 105.333 80 100C86.6667 94.6667 93.3333 94.6667 100 100C106.667 105.333 113.333 105.333 120 100C126.667 94.6667 133.333 94.6667 140 100C146.667 105.333 153.333 105.333 160 100" stroke="#3F0D0D" stroke-width="4" stroke-linecap="round"/>
<path d="M40 124C46.6667 118.667 53.3333 118.667 60 124C66.6667 129.333 73.3333 129.333 80 124C86.6667 118.667 93.3333 118.667 100 124C106.667 129.333 113.333 129.333 120 124C126.667 118.667 133.333 118.667 140 124C146.667 129.333 153.333 129.333 160 124" stroke="#3F0D0D" stroke-width="4" stroke-linecap="round"/>
<path d="M158.877 76C165.544 70.6667 172.211 70.6667 178.877 76C185.544 81.3333 192.211 81.3333 198.877 76C205.544 70.6667 212.211 70.6667 218.877 76C225.544 81.3333 232.211 81.3333 238.877 76C245.544 70.6667 252.211 70.6667 258.877 76C265.544 81.3333 272.211 81.3333 278.877 76" stroke="#3F0D0D" stroke-width="4" stroke-linecap="round"/>
<path d="M158.877 100C165.544 94.6667 172.211 94.6667 178.877 100C185.544 105.333 192.211 105.333 198.877 100C205.544 94.6667 212.211 94.6667 218.877 100C225.544 105.333 232.211 105.333 238.877 100C245.544 94.6667 252.211 94.6667 258.877 100C265.544 105.333 272.211 105.333 278.877 100" stroke="#3F0D0D" stroke-width="4" stroke-linecap="round"/>
<path d="M158.877 124C165.544 118.667 172.211 118.667 178.877 124C185.544 129.333 192.211 129.333 198.877 124C205.544 118.667 212.211 118.667 218.877 124C225.544 129.333 232.211 129.333 238.877 124C245.544 118.667 252.211 118.667 258.877 124C265.544 129.333 272.211 129.333 278.877 124" stroke="#3F0D0D" stroke-width="4" stroke-linecap="round"/>
<path d="M277.754 76C284.421 70.6667 291.087 70.6667 297.754 76C304.421 81.3333 311.087 81.3333 317.754 76C324.421 70.6667 331.087 70.6667 337.754 76C344.421 81.3333 351.087 81.3333 357.754 76C364.421 70.6667 371.087 70.6667 377.754 76C384.421 81.3333 391.087 81.3333 397.754 76" stroke="#3F0D0D" stroke-width="4" stroke-linecap="round"/>
<path d="M277.754 100C284.421 94.6667 291.087 94.6667 297.754 100C304.421 105.333 311.087 105.333 317.754 100C324.421 94.6667 331.087 94.6667 337.754 100C344.421 105.333 351.087 105.333 357.754 100C364.421 94.6667 371.087 94.6667 377.754 100C384.421 105.333 391.087 105.333 397.754 100" stroke="#3F0D0D" stroke-width="4" stroke-linecap="round"/>
<path d="M277.754 124C284.421 118.667 291.087 118.667 297.754 124C304.421 129.333 311.087 129.333 317.754 124C324.421 118.667 331.087 118.667 337.754 124C344.421 129.333 351.087 129.333 357.754 124C364.421 118.667 371.087 118.667 377.754 124C384.421 129.333 391.087 129.333 397.754 124" stroke="#3F0D0D" stroke-width="4" stroke-linecap="round"/>
<path d="M396.631 76C403.298 70.6667 409.965 70.6667 416.631 76C423.298 81.3333 429.965 81.3333 436.631 76C443.298 70.6667 449.965 70.6667 456.631 76C463.298 81.3333 469.965 81.3333 476.631 76C483.298 70.6667 489.965 70.6667 496.631 76C503.298 81.3333 509.965 81.3333 516.631 76" stroke="#3F0D0D" stroke-width="4" stroke-linecap="round"/>
<path d="M396.631 100C403.298 94.6667 409.965 94.6667 416.631 100C423.298 105.333 429.965 105.333 436.631 100C443.298 94.6667 449.965 94.6667 456.631 100C463.298 105.333 469.965 105.333 476.631 100C483.298 94.6667 489.965 94.6667 496.631 100C503.298 105.333 509.965 105.333 516.631 100" stroke="#3F0D0D" stroke-width="4" stroke-linecap="round"/>
<path d="M396.631 124C403.298 118.667 409.965 118.667 416.631 124C423.298 129.333 429.965 129.333 436.631 124C443.298 118.667 449.965 118.667 456.631 124C463.298 129.333 469.965 129.333 476.631 124C483.298 118.667 489.965 118.667 496.631 124C503.298 129.333 509.965 129.333 516.631 124" stroke="#3F0D0D" stroke-width="4" stroke-linecap="round"/>
<path d="M515.508 76C522.175 70.6667 528.842 70.6667 535.508 76C542.175 81.3333 548.842 81.3333 555.508 76C562.175 70.6667 568.842 70.6667 575.508 76C582.175 81.3333 588.842 81.3333 595.508 76C602.175 70.6667 608.842 70.6667 615.508 76C622.175 81.3333 628.842 81.3333 635.508 76" stroke="#3F0D0D" stroke-width="4" stroke-linecap="round"/>
<path d="M515.508 100C522.175 94.6667 528.842 94.6667 535.508 100C542.175 105.333 548.842 105.333 555.508 100C562.175 94.6667 568.842 94.6667 575.508 100C582.175 105.333 588.842 105.333 595.508 100C602.175 94.6667 608.842 94.6667 615.508 100C622.175 105.333 628.842 105.333 635.508 100" stroke="#3F0D0D" stroke-width="4" stroke-linecap="round"/>
<path d="M515.508 124C522.175 118.667 528.842 118.667 535.508 124C542.175 129.333 548.842 129.333 555.508 124C562.175 118.667 568.842 118.667 575.508 124C582.175 129.333 588.842 129.333 595.508 124C602.175 118.667 608.842 118.667 615.508 124C622.175 129.333 628.842 129.333 635.508 124" stroke="#3F0D0D" stroke-width="4" stroke-linecap="round"/>
<path d="M634.385 76C641.052 70.6667 647.719 70.6667 654.385 76C661.052 81.3333 667.719 81.3333 674.385 76C681.052 70.6667 687.719 70.6667 694.385 76C701.052 81.3333 707.719 81.3333 714.385 76C721.052 70.6667 727.719 70.6667 734.385 76C741.052 81.3333 747.719 81.3333 754.385 76" stroke="#3F0D0D" stroke-width="4" stroke-linecap="round"/>
<path d="M634.385 100C641.052 94.6667 647.719 94.6667 654.385 100C661.052 105.333 667.719 105.333 674.385 100C681.052 94.6667 687.719 94.6667 694.385 100C701.052 105.333 707.719 105.333 714.385 100C721.052 94.6667 727.719 94.6667 734.385 100C741.052 105.333 747.719 105.333 754.385 100" stroke="#3F0D0D" stroke-width="4" stroke-linecap="round"/>
<path d="M634.385 124C641.052 118.667 647.719 118.667 654.385 124C661.052 129.333 667.719 129.333 674.385 124C681.052 118.667 687.719 118.667 694.385 124C701.052 129.333 707.719 129.333 714.385 124C721.052 118.667 727.719 118.667 734.385 124C741.052 129.333 747.719 129.333 754.385 124" stroke="#3F0D0D" stroke-width="4" stroke-linecap="round"/>
<path d="M753.263 76C759.929 70.6667 766.596 70.6667 773.263 76C779.929 81.3333 786.596 81.3333 793.263 76C799.929 70.6667 806.596 70.6667 813.263 76C819.929 81.3333 826.596 81.3333 833.263 76C839.929 70.6667 846.596 70.6667 853.263 76C859.929 81.3333 866.596 81.3333 873.263 76" stroke="#3F0D0D" stroke-width="4" stroke-linecap="round"/>
<path d="M753.263 100C759.929 94.6667 766.596 94.6667 773.263 100C779.929 105.333 786.596 105.333 793.263 100C799.929 94.6667 806.596 94.6667 813.263 100C819.929 105.333 826.596 105.333 833.263 100C839.929 94.6667 846.596 94.6667 853.263 100C859.929 105.333 866.596 105.333 873.263 100" stroke="#3F0D0D" stroke-width="4" stroke-linecap="round"/>
<path d="M753.263 124C759.929 118.667 766.596 118.667 773.263 124C779.929 129.333 786.596 129.333 793.263 124C799.929 118.667 806.596 118.667 813.263 124C819.929 129.333 826.596 129.333 833.263 124C839.929 118.667 846.596 118.667 853.263 124C859.929 129.333 866.596 129.333 873.263 124" stroke="#3F0D0D" stroke-width="4" stroke-linecap="round"/>
</g>
</svg>
